<svg xmlns="http://www.w3.org/2000/svg" version="1.1" xmlns:xlink="http://www.w3.org/1999/xlink" xmlns:svgjs="http://svgjs.dev/svgjs" width="1000" height="1000" viewBox="0 0 1000 1000"><rect width="1000" height="1000" fill="#ffffff"></rect><g transform="matrix(0.7,0,0,0.7,149.57575777124327,366.9227771427986)"><svg viewBox="0 0 396 151" data-background-color="#046380" preserveAspectRatio="xMidYMid meet" height="381" width="1000" xmlns="http://www.w3.org/2000/svg" xmlns:xlink="http://www.w3.org/1999/xlink"><g id="tight-bounds" transform="matrix(1,0,0,1,0.24000011058910786,-0.15444075201574492)"><svg viewBox="0 0 395.52 151.3088815040315" height="151.3088815040315" width="395.52"><g><svg viewBox="0 0 395.52 151.3088815040315" height="151.3088815040315" width="395.52"><g><svg viewBox="0 0 395.52 151.3088815040315" height="151.3088815040315" width="395.52"><g id="textblocktransform"><svg viewBox="0 0 395.52 151.3088815040315" height="151.3088815040315" width="395.52" id="textblock"><g><svg viewBox="0 0 395.52 109.57678100263851" height="109.57678100263851" width="395.52"><g transform="matrix(1,0,0,1,0,0)"><svg width="395.52" viewBox="1.6500000953674316 -36.5 170.54000854492188 47.25" height="109.57678100263851" data-palette-color="#ffffff"><path d="M27.55 0L12.35 0Q9.4 0 6.95-1.33 4.5-2.65 3.08-4.98 1.65-7.3 1.65-10.25L1.65-10.25Q1.65-12.5 2.65-14.5 3.65-16.5 5.45-17.9L5.45-17.9Q3.85-19.25 2.88-21.13 1.9-23 1.9-25L1.9-25Q1.9-27.9 3.3-30.15 4.7-32.4 7.1-33.7 9.5-35 12.35-35L12.35-35 27.55-35 27.55-27.25 14.25-27.25Q13.35-27.25 12.63-26.9 11.9-26.55 11.48-25.9 11.05-25.25 11.05-24.35L11.05-24.35Q11.05-23.5 11.48-22.88 11.9-22.25 12.63-21.88 13.35-21.5 14.25-21.5L14.25-21.5 25.8-21.5 25.8-13.8 14.35-13.8Q13.4-13.8 12.65-13.43 11.9-13.05 11.48-12.35 11.05-11.65 11.05-10.75L11.05-10.75Q11.05-9.85 11.48-9.18 11.9-8.5 12.65-8.13 13.4-7.75 14.35-7.75L14.35-7.75 27.55-7.75 27.55 0ZM45.55-9.7L31.4-9.7 31.4-15.95 45.55-15.95 45.55-9.7ZM66.95 0L50.55 0 50.55-7.75 65.45-7.75Q66.4-7.75 67.07-8.15 67.75-8.55 68.15-9.25 68.55-9.95 68.55-10.75L68.55-10.75Q68.55-11.6 68.15-12.3 67.75-13 67.07-13.4 66.4-13.8 65.45-13.8L65.45-13.8 60.5-13.8Q57.34-13.8 54.8-15.05 52.25-16.3 50.72-18.63 49.2-20.95 49.2-24.25L49.2-24.25Q49.2-27.5 50.65-29.9 52.09-32.3 54.55-33.65 57-35 60-35L60-35 75.7-35 75.7-27.25 61.2-27.25Q60.4-27.25 59.77-26.88 59.15-26.5 58.8-25.9 58.45-25.3 58.45-24.55L58.45-24.55Q58.45-23.8 58.8-23.18 59.15-22.55 59.77-22.18 60.4-21.8 61.2-21.8L61.2-21.8 66.45-21.8Q69.95-21.8 72.5-20.5 75.05-19.2 76.45-16.88 77.84-14.55 77.84-11.4L77.84-11.4Q77.84-7.8 76.37-5.23 74.9-2.65 72.42-1.33 69.95 0 66.95 0L66.95 0ZM90.54 0L81.89 0 81.89-36.5 90.54-36.5 90.54-24.2Q92.04-25.3 93.79-25.83 95.54-26.35 97.24-26.35L97.24-26.35Q100.64-26.35 103.02-24.9 105.39-23.45 106.69-20.85 107.99-18.25 107.99-14.8L107.99-14.8 107.99 0 99.29 0 99.29-14.25Q99.29-15.6 98.69-16.6 98.09-17.6 97.09-18.15 96.09-18.7 94.94-18.7L94.94-18.7Q93.79-18.7 92.79-18.18 91.79-17.65 91.17-16.65 90.54-15.65 90.54-14.35L90.54-14.35 90.54 0ZM126.09 0.6L126.09 0.6Q122.19 0.6 119.02-1.13 115.84-2.85 113.94-5.9 112.04-8.95 112.04-12.9L112.04-12.9Q112.04-16.8 113.94-19.85 115.84-22.9 119.04-24.63 122.24-26.35 126.14-26.35L126.14-26.35Q130.04-26.35 133.22-24.63 136.39-22.9 138.27-19.85 140.14-16.8 140.14-12.9L140.14-12.9Q140.14-8.95 138.27-5.9 136.39-2.85 133.22-1.13 130.04 0.6 126.09 0.6ZM126.09-7.1L126.09-7.1Q127.69-7.1 128.92-7.85 130.14-8.6 130.79-9.93 131.44-11.25 131.44-12.9L131.44-12.9Q131.44-14.6 130.79-15.9 130.14-17.2 128.92-17.95 127.69-18.7 126.09-18.7L126.09-18.7Q124.49-18.7 123.29-17.95 122.09-17.2 121.42-15.9 120.74-14.6 120.74-12.9L120.74-12.9Q120.74-11.25 121.42-9.93 122.09-8.6 123.29-7.85 124.49-7.1 126.09-7.1ZM158.14-26.4L158.14-26.4Q153.94-26.4 150.76-24.65 147.59-22.9 145.84-19.78 144.09-16.65 144.09-12.4L144.09-12.4 144.09 10.75 152.79 10.75 152.79-2.4 152.99-2.4Q153.79-1.4 154.84-0.73 155.89-0.05 157.19 0.28 158.49 0.6 159.89 0.6L159.89 0.6Q163.44 0.6 166.24-1.05 169.04-2.7 170.61-5.63 172.19-8.55 172.19-12.45L172.19-12.45Q172.19-15.55 171.21-18.07 170.24-20.6 168.41-22.48 166.59-24.35 163.99-25.38 161.39-26.4 158.14-26.4ZM158.14-18.85L158.14-18.85Q159.74-18.85 160.91-18.07 162.09-17.3 162.71-15.95 163.34-14.6 163.34-12.9L163.34-12.9Q163.34-11.25 162.71-9.95 162.09-8.65 160.91-7.88 159.74-7.1 158.14-7.1L158.14-7.1Q156.64-7.1 155.44-7.88 154.24-8.65 153.59-9.95 152.94-11.25 152.94-12.9L152.94-12.9Q152.94-14.6 153.59-15.95 154.24-17.3 155.44-18.07 156.64-18.85 158.14-18.85Z" opacity="1" transform="matrix(1,0,0,1,0,0)" fill="#000000" class="wordmark-text-0" data-fill-palette-color="primary" id="text-0"></path></svg></g></svg></g><g transform="matrix(1,0,0,1,0,135.4452291546174)"><svg viewBox="0 0 232.209792 15.8636523494141" height="15.8636523494141" width="232.209792"><g transform="matrix(1,0,0,1,0,0)"><svg width="232.209792" viewBox="6.320000171661377 -41.939998626708984 776.4913330078125 53.04999923706055" height="15.8636523494141" data-palette-color="#ffffff"><path d="M6.37 0L6.32-41.5 10.35-41.85 10.35 0 6.37 0ZM44.36-19.41L44.36-10.3Q44.36-5.44 44.82-0.2L44.82-0.2 41.21 0.1 40.6-3.3Q37.5-0.81 32.39 0.17L32.39 0.17Q30.73 0.49 29.44 0.49 28.15 0.49 27.16 0.37 26.17 0.24 25.25-0.11 24.34-0.46 23.56-1.1 22.78-1.73 22.19-2.78L22.19-2.78Q20.94-5 20.94-8.12 20.94-11.23 21.4-12.95 21.85-14.67 22.9-15.82L22.9-15.82Q24.97-18.09 29.88-18.09 34.79-18.09 40.35-16.24L40.35-16.24 40.35-19.41Q40.35-24.71 35.98-25.68L35.98-25.68Q34.57-26 32.74-26L32.74-26Q28.56-26 24.07-24.34L24.07-24.34 23.17-27.86Q24.41-28.69 29.51-29.35L29.51-29.35Q31.13-29.54 33.38-29.54 35.64-29.54 37.81-29 39.99-28.47 41.43-27.25L41.43-27.25Q44.36-24.83 44.36-19.41L44.36-19.41ZM40.26-13.18L40.26-13.18Q34.54-14.62 29.71-14.62L29.71-14.62Q26.73-14.62 25.75-12.92L25.75-12.92Q25.1-11.72 25.1-9.38 25.1-7.03 25.35-5.98 25.61-4.93 26.19-4.25L26.19-4.25Q27.34-2.95 29.98-2.95L29.98-2.95Q34.1-2.95 38.16-5.08L38.16-5.08Q39.4-5.71 40.4-6.49L40.4-6.49Q40.26-9.13 40.26-13.18ZM68.33-4.57L69.72-1.39Q65.74 0.49 62.37 0.49L62.37 0.49Q56.27 0.49 55.44-4.74L55.44-4.74Q55.24-5.98 55.24-8.35L55.24-8.35 55.24-25.66 51.73-25.66 51.73-28.66 55.24-29.05 55.88-35.69 59.27-35.69 59.27-29.05 67.74-29.05 67.74-25.66 59.27-25.66 59.27-8.42Q59.27-5.42 59.71-4.59L59.71-4.59Q60.52-3.08 62.93-3.08 65.35-3.08 68.33-4.57L68.33-4.57ZM97.82-5.03L99.02-1.54Q93.96 0.49 87.86 0.49L87.86 0.49Q84.32 0.49 81.85-0.24L81.85-0.24Q77.92-1.37 76.63-4.88L76.63-4.88Q75.43-8.18 75.43-14.65L75.43-14.65 75.43-15.89Q75.43-23.63 78.65-26.76L78.65-26.76Q81.56-29.54 88.35-29.54L88.35-29.54Q94.96-29.54 97.38-26.27L97.38-26.27Q98.55-24.68 98.93-22.42 99.31-20.17 99.31-18.12L99.31-18.12Q99.31-14.92 99.16-13.16L99.16-13.16Q95.72-13.01 92.99-13.01L92.99-13.01Q92.99-13.01 89.06-13.01L89.06-13.01Q82.9-13.01 79.58-13.55L79.58-13.55Q79.58-7.93 81-5.71L81-5.71Q82.73-3 87.91-3 93.08-3 97.82-5.03L97.82-5.03ZM79.58-16.41L95.18-16.41 95.18-18.75Q95.18-22.58 93.69-24.22L93.69-24.22Q92.03-26.05 87.96-26.05L87.96-26.05Q83.07-26.05 81.29-23.93L81.29-23.93Q79.58-21.9 79.58-16.41L79.58-16.41ZM107.85-2.39L109.61-5.76Q114.64-2.95 119.72-2.95L119.72-2.95Q123.94-2.95 124.67-5.96L124.67-5.96Q124.92-6.98 124.92-8.46 124.92-9.94 124.57-10.75 124.23-11.57 123.43-11.98 122.62-12.38 121.29-12.57 119.96-12.77 117.91-13.12 115.86-13.48 114.15-13.92 112.44-14.36 111.24-15.19L111.24-15.19Q108.71-16.97 108.8-21.19L108.8-21.19 108.8-21.8Q108.8-26.25 111.73-28.13L111.73-28.13Q114.57-29.98 121.08-29.39L121.08-29.39Q125.53-28.98 128.16-27.86L128.16-27.86 127.02-24.17Q124.09-25.42 119.99-25.98L119.99-25.98Q118.72-26.15 117.6-26.15 116.49-26.15 115.59-25.98 114.69-25.81 114.08-25.34L114.08-25.34Q112.91-24.39 112.86-21.8L112.86-21.8Q112.78-18.75 114.57-17.92L114.57-17.92Q116.27-17.11 118.62-16.81 120.96-16.5 122.45-16.27 123.94-16.04 125.16-15.65 126.38-15.26 127.26-14.4L127.26-14.4Q129.09-12.67 129.04-8.37L129.04-8.37Q128.92-0.88 122.79 0.17L122.79 0.17Q120.94 0.49 119.08 0.49 117.23 0.49 115.68 0.26 114.13 0.02 112.71-0.39L112.71-0.39Q110.02-1.15 107.85-2.39L107.85-2.39ZM151.62-4.57L153.01-1.39Q149.04 0.49 145.67 0.49L145.67 0.49Q139.56 0.49 138.73-4.74L138.73-4.74Q138.54-5.98 138.54-8.35L138.54-8.35 138.54-25.66 135.02-25.66 135.02-28.66 138.54-29.05 139.17-35.69 142.57-35.69 142.57-29.05 151.04-29.05 151.04-25.66 142.57-25.66 142.57-8.42Q142.57-5.42 143.01-4.59L143.01-4.59Q143.81-3.08 146.23-3.08 148.64-3.08 151.62-4.57L151.62-4.57ZM184.94-4.57L186.34-1.39Q182.36 0.49 178.99 0.49L178.99 0.49Q172.88 0.49 172.05-4.74L172.05-4.74Q171.86-5.98 171.86-8.35L171.86-8.35 171.86-25.66 168.34-25.66 168.34-28.66 171.86-29.05 172.49-35.69 175.89-35.69 175.89-29.05 184.36-29.05 184.36-25.66 175.89-25.66 175.89-8.42Q175.89-5.42 176.33-4.59L176.33-4.59Q177.13-3.08 179.55-3.08 181.96-3.08 184.94-4.57L184.94-4.57ZM214.43-5.03L215.63-1.54Q210.58 0.49 204.47 0.49L204.47 0.49Q200.93 0.49 198.47-0.24L198.47-0.24Q194.54-1.37 193.24-4.88L193.24-4.88Q192.05-8.18 192.05-14.65L192.05-14.65 192.05-15.89Q192.05-23.63 195.27-26.76L195.27-26.76Q198.17-29.54 204.96-29.54L204.96-29.54Q211.58-29.54 213.99-26.27L213.99-26.27Q215.17-24.68 215.54-22.42 215.92-20.17 215.92-18.12L215.92-18.12Q215.92-14.92 215.78-13.16L215.78-13.16Q212.33-13.01 209.6-13.01L209.6-13.01Q209.6-13.01 205.67-13.01L205.67-13.01Q199.52-13.01 196.2-13.55L196.2-13.55Q196.2-7.93 197.61-5.71L197.61-5.71Q199.35-3 204.52-3 209.7-3 214.43-5.03L214.43-5.03ZM196.2-16.41L211.8-16.41 211.8-18.75Q211.8-22.58 210.31-24.22L210.31-24.22Q208.65-26.05 204.57-26.05L204.57-26.05Q199.69-26.05 197.9-23.93L197.9-23.93Q196.2-21.9 196.2-16.41L196.2-16.41ZM245.14-4.59L246.36-1.29Q242.97 0.49 237.06 0.49L237.06 0.49Q233.57 0.49 231.94-0.05L231.94-0.05Q227.76-1.46 226.47-4.86L226.47-4.86Q225.56-7.23 225.42-9.96 225.27-12.7 225.27-14.58 225.27-16.46 225.37-18.25 225.47-20.04 225.84-21.7 226.22-23.36 227-24.79 227.79-26.22 229.13-27.29L229.13-27.29Q232.03-29.54 237.48-29.54L237.48-29.54Q241.48-29.54 244.85-28.37L244.85-28.37Q245.75-28.08 246.22-27.81L246.22-27.81 245-24.19Q240.31-26 237.32-26 234.33-26 232.92-25.32 231.52-24.63 230.74-23.24L230.74-23.24Q229.42-20.85 229.42-14.45L229.42-14.45Q229.42-11.89 229.59-9.78 229.76-7.67 230.45-6.15L230.45-6.15Q231.89-3.03 236.39-3.03 240.9-3.03 245.14-4.59L245.14-4.59ZM269.09-25.76L269.09-25.76Q264.23-25.76 259.45-22.95L259.45-22.95 259.45 0 255.39 0 255.39-41.55 259.35-41.94 259.35-26.05Q261.86-28.2 265.89-29.15L265.89-29.15Q267.5-29.54 269.7-29.54 271.9-29.54 273.56-29.04 275.22-28.54 276.2-27.44L276.2-27.44Q277.95-25.46 277.95-20.24L277.95-20.24 277.95 0 273.85 0 273.85-19.51Q273.85-23.02 273.17-24.04 272.48-25.05 271.54-25.4 270.6-25.76 269.09-25.76ZM287.4-5.81L288.18-5.86Q288.77-5.91 289.28-5.91L289.28-5.91 290.23-5.91Q290.96-5.91 291.39-5.7 291.82-5.49 291.82-5.05L291.82-5.05Q291.82-4.44 291.62-3.59L291.62-3.59 288.42 9.18 285.2 9.18 287.4-5.81ZM335.61-29.05L335.61-12.79Q335.61-4.74 336.08-0.2L336.08-0.2 332.44 0.1 331.85-3.34Q329-0.98 325.19 0.07L325.19 0.07Q323.67 0.49 321.59 0.49 319.5 0.49 317.85-0.01 316.2-0.51 315.23-1.61L315.23-1.61Q313.44-3.59 313.44-8.81L313.44-8.81 313.44-29.05 317.55-29.05 317.55-9.47Q317.55-5.96 318.23-4.94 318.91-3.93 319.85-3.58 320.79-3.22 322.09-3.22 323.38-3.22 324.59-3.43 325.8-3.64 327.02-4.03L327.02-4.03Q329.58-4.86 331.66-6.3L331.66-6.3 331.66-6.32Q331.56-8.18 331.56-13.55L331.56-13.55 331.56-29.05 335.61-29.05ZM360.68-25.73L360.68-25.73Q355.92-25.73 350.99-22.92L350.99-22.92 350.99 0 346.94 0 346.94-29.05 350.5-29.05 350.89-26.05Q353.55-28.22 357.51-29.15L357.51-29.15Q359.12-29.54 361.29-29.54 363.47-29.54 365.13-29.04 366.79-28.54 367.76-27.44L367.76-27.44Q369.55-25.46 369.55-20.24L369.55-20.24 369.55 0 365.44 0 365.44-19.48Q365.44-23 364.76-24.01 364.08-25.02 363.14-25.38 362.2-25.73 360.68-25.73ZM384.04-2.71L384.04-2.71 383.53 0 380.09 0 380.09-41.55 384.14-41.94 384.14-26.27Q389.2-29.54 393.91-29.54L393.91-29.54Q400.45-29.54 402.21-25.51L402.21-25.51Q403.31-22.97 403.45-18.38L403.45-18.38Q403.5-16.16 403.5-13.5L403.5-13.5 403.5-11.55Q403.5-8.2 403.08-6.52 402.65-4.83 401.99-3.63 401.33-2.42 400.18-1.51L400.18-1.51Q397.69 0.49 393.05 0.49 388.41 0.49 384.04-2.71ZM384.14-23.05L384.14-5.91Q389.32-3.1 392.86-3.1L392.86-3.1 393.15-3.1Q397.33-3.1 398.52-5.42L398.52-5.42Q399.16-6.59 399.3-8.47 399.45-10.35 399.45-12.99L399.45-12.99 399.45-16.5Q399.45-21.95 398.2-23.83L398.2-23.83Q396.98-25.71 393.57-25.71L393.57-25.71 392.96-25.71Q389.9-25.71 385.88-23.9L385.88-23.9Q384.83-23.44 384.14-23.05L384.14-23.05ZM435.09-5.03L436.29-1.54Q431.23 0.49 425.13 0.49L425.13 0.49Q421.59 0.49 419.13-0.24L419.13-0.24Q415.19-1.37 413.9-4.88L413.9-4.88Q412.7-8.18 412.7-14.65L412.7-14.65 412.7-15.89Q412.7-23.63 415.93-26.76L415.93-26.76Q418.83-29.54 425.62-29.54L425.62-29.54Q432.24-29.54 434.65-26.27L434.65-26.27Q435.82-24.68 436.2-22.42 436.58-20.17 436.58-18.12L436.58-18.12Q436.58-14.92 436.43-13.16L436.43-13.16Q432.99-13.01 430.26-13.01L430.26-13.01Q430.26-13.01 426.33-13.01L426.33-13.01Q420.17-13.01 416.85-13.55L416.85-13.55Q416.85-7.93 418.27-5.71L418.27-5.71Q420-3 425.18-3 430.36-3 435.09-5.03L435.09-5.03ZM416.85-16.41L432.46-16.41 432.46-18.75Q432.46-22.58 430.97-24.22L430.97-24.22Q429.31-26.05 425.23-26.05L425.23-26.05Q420.35-26.05 418.56-23.93L418.56-23.93Q416.85-21.9 416.85-16.41L416.85-16.41ZM469.07-19.41L469.07-10.3Q469.07-5.44 469.54-0.2L469.54-0.2 465.92 0.1 465.31-3.3Q462.21-0.81 457.11 0.17L457.11 0.17Q455.45 0.49 454.16 0.49 452.86 0.49 451.87 0.37 450.89 0.24 449.97-0.11 449.05-0.46 448.27-1.1 447.49-1.73 446.91-2.78L446.91-2.78Q445.66-5 445.66-8.12 445.66-11.23 446.11-12.95 446.56-14.67 447.61-15.82L447.61-15.82Q449.69-18.09 454.6-18.09 459.5-18.09 465.07-16.24L465.07-16.24 465.07-19.41Q465.07-24.71 460.7-25.68L460.7-25.68Q459.28-26 457.45-26L457.45-26Q453.28-26 448.79-24.34L448.79-24.34 447.88-27.86Q449.13-28.69 454.23-29.35L454.23-29.35Q455.84-29.54 458.1-29.54 460.36-29.54 462.53-29 464.7-28.47 466.14-27.25L466.14-27.25Q469.07-24.83 469.07-19.41L469.07-19.41ZM464.97-13.18L464.97-13.18Q459.26-14.62 454.43-14.62L454.43-14.62Q451.45-14.62 450.47-12.92L450.47-12.92Q449.81-11.72 449.81-9.38 449.81-7.03 450.07-5.98 450.32-4.93 450.91-4.25L450.91-4.25Q452.06-2.95 454.69-2.95L454.69-2.95Q458.82-2.95 462.87-5.08L462.87-5.08Q464.12-5.71 465.12-6.49L465.12-6.49Q464.97-9.13 464.97-13.18ZM493.05-4.57L494.44-1.39Q490.46 0.49 487.09 0.49L487.09 0.49Q480.99 0.49 480.16-4.74L480.16-4.74Q479.96-5.98 479.96-8.35L479.96-8.35 479.96-25.66 476.44-25.66 476.44-28.66 479.96-29.05 480.59-35.69 483.99-35.69 483.99-29.05 492.46-29.05 492.46-25.66 483.99-25.66 483.99-8.42Q483.99-5.42 484.43-4.59L484.43-4.59Q485.23-3.08 487.65-3.08 490.07-3.08 493.05-4.57L493.05-4.57ZM523.22-19.41L523.22-10.3Q523.22-5.44 523.68-0.2L523.68-0.2 520.07 0.1 519.46-3.3Q516.36-0.81 511.26 0.17L511.26 0.17Q509.6 0.49 508.3 0.49 507.01 0.49 506.02 0.37 505.03 0.24 504.12-0.11 503.2-0.46 502.42-1.1 501.64-1.73 501.05-2.78L501.05-2.78Q499.81-5 499.81-8.12 499.81-11.23 500.26-12.95 500.71-14.67 501.76-15.82L501.76-15.82Q503.83-18.09 508.74-18.09 513.65-18.09 519.22-16.24L519.22-16.24 519.22-19.41Q519.22-24.71 514.85-25.68L514.85-25.68Q513.43-26 511.6-26L511.6-26Q507.42-26 502.93-24.34L502.93-24.34 502.03-27.86Q503.27-28.69 508.38-29.35L508.38-29.35Q509.99-29.54 512.24-29.54 514.5-29.54 516.68-29 518.85-28.47 520.29-27.25L520.29-27.25Q523.22-24.83 523.22-19.41L523.22-19.41ZM519.12-13.18L519.12-13.18Q513.4-14.62 508.57-14.62L508.57-14.62Q505.59-14.62 504.62-12.92L504.62-12.92Q503.96-11.72 503.96-9.38 503.96-7.03 504.21-5.98 504.47-4.93 505.06-4.25L505.06-4.25Q506.2-2.95 508.84-2.95L508.84-2.95Q512.97-2.95 517.02-5.08L517.02-5.08Q518.26-5.71 519.26-6.49L519.26-6.49Q519.12-9.13 519.12-13.18ZM538.08-2.71L538.08-2.71 537.57 0 534.13 0 534.13-41.55 538.18-41.94 538.18-26.27Q543.24-29.54 547.95-29.54L547.95-29.54Q554.49-29.54 556.25-25.51L556.25-25.51Q557.35-22.97 557.49-18.38L557.49-18.38Q557.54-16.16 557.54-13.5L557.54-13.5 557.54-11.55Q557.54-8.2 557.12-6.52 556.69-4.83 556.03-3.63 555.37-2.42 554.22-1.51L554.22-1.51Q551.73 0.49 547.09 0.49 542.45 0.49 538.08-2.71ZM538.18-23.05L538.18-5.91Q543.36-3.1 546.9-3.1L546.9-3.1 547.19-3.1Q551.37-3.1 552.56-5.42L552.56-5.42Q553.2-6.59 553.34-8.47 553.49-10.35 553.49-12.99L553.49-12.99 553.49-16.5Q553.49-21.95 552.24-23.83L552.24-23.83Q551.02-25.71 547.61-25.71L547.61-25.71 547-25.71Q543.94-25.71 539.92-23.9L539.92-23.9Q538.87-23.44 538.18-23.05L538.18-23.05ZM568.5 0L568.45-41.5 572.48-41.85 572.48 0 568.5 0ZM605.8-5.03L607-1.54Q601.95 0.49 595.84 0.49L595.84 0.49Q592.3 0.49 589.84-0.24L589.84-0.24Q585.91-1.37 584.61-4.88L584.61-4.88Q583.42-8.18 583.42-14.65L583.42-14.65 583.42-15.89Q583.42-23.63 586.64-26.76L586.64-26.76Q589.54-29.54 596.33-29.54L596.33-29.54Q602.95-29.54 605.36-26.27L605.36-26.27Q606.54-24.68 606.92-22.42 607.29-20.17 607.29-18.12L607.29-18.12Q607.29-14.92 607.15-13.16L607.15-13.16Q603.7-13.01 600.97-13.01L600.97-13.01Q600.97-13.01 597.04-13.01L597.04-13.01Q590.89-13.01 587.57-13.55L587.57-13.55Q587.57-7.93 588.98-5.71L588.98-5.71Q590.72-3 595.89-3 601.07-3 605.8-5.03L605.8-5.03ZM587.57-16.41L603.17-16.41 603.17-18.75Q603.17-22.58 601.68-24.22L601.68-24.22Q600.02-26.05 595.94-26.05L595.94-26.05Q591.06-26.05 589.28-23.93L589.28-23.93Q587.57-21.9 587.57-16.41L587.57-16.41ZM633.92-1.73L633.92-1.73 633.92 11.11 629.87 11.11 629.87-29.05 633.17-29.05 633.63-26.05Q636.49-28.2 641.08-29.2L641.08-29.2Q642.74-29.54 644.69-29.54 646.64-29.54 648.15-29.03 649.65-28.52 650.62-27.6 651.6-26.68 652.14-25.42 652.67-24.15 652.94-22.66L652.94-22.66Q653.28-20.61 653.28-16.11L653.28-16.11 653.28-15.55Q653.28-9.84 652.89-7.64 652.5-5.44 651.87-4.02 651.23-2.59 650.11-1.59L650.11-1.59Q647.79 0.49 642.93 0.49 638.07 0.49 633.92-1.73ZM633.92-22.92L633.92-5.08Q638.07-3.17 642.64-3.17L642.64-3.17Q645.62-3.17 646.99-4.27L646.99-4.27Q648.84-5.79 649.06-11.33L649.06-11.33Q649.13-13.16 649.13-15.53L649.13-15.53 649.13-16.06Q649.13-21.68 648.16-23.58L648.16-23.58Q647.06-25.76 643.62-25.76L643.62-25.76 643.25-25.76Q639.66-25.76 635.8-23.97L635.8-23.97Q634.68-23.46 633.92-22.92L633.92-22.92ZM673.74-25.51L673.74-25.51Q670.62-25.51 667.37-22.39L667.37-22.39 667.37 0 663.32 0 663.32-29.05 666.88-29.05 667.27-25.2Q668.42-26.98 669.75-27.98 671.08-28.98 671.93-29.2L671.93-29.2Q673.16-29.54 674.25-29.54 675.35-29.54 677.01-29.1L677.01-29.1 676.65-25.22Q675.4-25.51 673.74-25.51ZM687.07-36.01L687.07-36.01Q685.43-36.01 684.97-36.47L684.97-36.47Q684.24-37.23 684.24-38.56 684.24-39.89 684.4-40.47 684.55-41.04 684.87-41.36L684.87-41.36Q685.46-41.94 686.67-41.94 687.87-41.94 688.4-41.82 688.92-41.7 689.27-41.36L689.27-41.36Q689.85-40.77 689.85-39.44 689.85-38.11 689.72-37.54 689.58-36.96 689.27-36.62L689.27-36.62Q688.66-36.01 687.07-36.01ZM685.14 0L685.09-29.05 689.1-29.05 689.1 0 685.14 0ZM719.81-4.59L721.03-1.29Q717.63 0.49 711.72 0.49L711.72 0.49Q708.23 0.49 706.6-0.05L706.6-0.05Q702.42-1.46 701.13-4.86L701.13-4.86Q700.23-7.23 700.08-9.96 699.93-12.7 699.93-14.58 699.93-16.46 700.03-18.25 700.13-20.04 700.51-21.7 700.88-23.36 701.67-24.79 702.45-26.22 703.79-27.29L703.79-27.29Q706.7-29.54 712.14-29.54L712.14-29.54Q716.14-29.54 719.51-28.37L719.51-28.37Q720.42-28.08 720.88-27.81L720.88-27.81 719.66-24.19Q714.97-26 711.98-26 708.99-26 707.59-25.32 706.18-24.63 705.4-23.24L705.4-23.24Q704.08-20.85 704.08-14.45L704.08-14.45Q704.08-11.89 704.25-9.78 704.42-7.67 705.11-6.15L705.11-6.15Q706.55-3.03 711.05-3.03 715.56-3.03 719.81-4.59L719.81-4.59ZM751.59-5.03L752.79-1.54Q747.73 0.49 741.63 0.49L741.63 0.49Q738.09 0.49 735.62-0.24L735.62-0.24Q731.69-1.37 730.4-4.88L730.4-4.88Q729.2-8.18 729.2-14.65L729.2-14.65 729.2-15.89Q729.2-23.63 732.43-26.76L732.43-26.76Q735.33-29.54 742.12-29.54L742.12-29.54Q748.73-29.54 751.15-26.27L751.15-26.27Q752.32-24.68 752.7-22.42 753.08-20.17 753.08-18.12L753.08-18.12Q753.08-14.92 752.93-13.16L752.93-13.16Q749.49-13.01 746.76-13.01L746.76-13.01Q746.76-13.01 742.83-13.01L742.83-13.01Q736.67-13.01 733.35-13.55L733.35-13.55Q733.35-7.93 734.77-5.71L734.77-5.71Q736.5-3 741.68-3 746.85-3 751.59-5.03L751.59-5.03ZM733.35-16.41L748.95-16.41 748.95-18.75Q748.95-22.58 747.46-24.22L747.46-24.22Q745.8-26.05 741.73-26.05L741.73-26.05Q736.84-26.05 735.06-23.93L735.06-23.93Q733.35-21.9 733.35-16.41L733.35-16.41ZM761.62-2.39L763.38-5.76Q768.41-2.95 773.49-2.95L773.49-2.95Q777.71-2.95 778.44-5.96L778.44-5.96Q778.69-6.98 778.69-8.46 778.69-9.94 778.35-10.75 778-11.57 777.2-11.98 776.39-12.38 775.06-12.57 773.73-12.77 771.68-13.12 769.63-13.48 767.92-13.92 766.21-14.36 765.02-15.19L765.02-15.19Q762.48-16.97 762.57-21.19L762.57-21.19 762.57-21.8Q762.57-26.25 765.5-28.13L765.5-28.13Q768.34-29.98 774.85-29.39L774.85-29.39Q779.3-28.98 781.93-27.86L781.93-27.86 780.79-24.17Q777.86-25.42 773.76-25.98L773.76-25.98Q772.49-26.15 771.38-26.15 770.26-26.15 769.36-25.98 768.46-25.81 767.85-25.34L767.85-25.34Q766.68-24.39 766.63-21.8L766.63-21.8Q766.55-18.75 768.34-17.92L768.34-17.92Q770.04-17.11 772.39-16.81 774.73-16.5 776.22-16.27 777.71-16.04 778.93-15.65 780.15-15.26 781.03-14.4L781.03-14.4Q782.86-12.67 782.81-8.37L782.81-8.37Q782.69-0.88 776.56 0.17L776.56 0.17Q774.71 0.49 772.85 0.49 771 0.49 769.45 0.26 767.9 0.02 766.48-0.39L766.48-0.39Q763.79-1.15 761.62-2.39L761.62-2.39Z" opacity="1" transform="matrix(1,0,0,1,0,0)" fill="#000000" class="slogan-text-1" data-fill-palette-color="secondary" id="text-1"></path></svg></g></svg></g></svg></g></svg></g></svg></g><defs></defs></svg><rect width="395.52" height="151.3088815040315" fill="none" stroke="none" visibility="hidden"></rect></g></svg></g></svg>